<svg width="101" height="59" viewBox="0 0 101 59" fill="none" xmlns="http://www.w3.org/2000/svg">
<g clip-path="url(#clip0_1_105)">
<path d="M58.61 40.6209C45.0024 40.6209 28.9451 38.0758 24.3125 34.3594L24.1731 34.2355C23.3604 33.4247 22.1761 31.4764 22.8611 29.2804C23.7668 26.3411 27.4125 24.2126 34.0305 22.7711C41.2522 21.1945 51.1676 21.4873 60.5489 23.5482C65.2512 24.5842 76.5482 27.6249 79.8224 33.6161L80.1823 34.2806L79.9037 34.9788C79.1142 36.9158 76.8965 38.3123 73.1231 39.247C69.3265 40.193 64.1714 40.6209 58.61 40.6209ZM26.5417 31.9269C32.0451 36.1162 59.6201 39.2582 72.2872 36.105C74.6789 35.5081 75.8052 34.8324 76.3392 34.3481C71.2074 27.6925 48.474 22.9513 34.7619 25.9469C27.6563 27.501 26.3211 29.4268 26.0773 30.1926C25.8218 30.9922 26.3675 31.7242 26.5417 31.9381V31.9269Z" fill="#765E48"/>
<path d="M58.6099 40.9813C45.5249 40.9813 29.0263 38.605 24.0686 34.6297L23.9177 34.4945C23.0353 33.6161 21.7697 31.5327 22.5012 29.1677C23.4416 26.0933 27.1918 23.886 33.9492 22.4107C41.2174 20.8228 51.2024 21.1156 60.6418 23.1878C65.4021 24.2351 76.8153 27.3208 80.1591 33.4359L80.6003 34.2468L80.252 35.1027C79.416 37.1523 77.1171 38.6163 73.216 39.5961C69.5819 40.497 64.5313 40.9813 58.6099 40.9813ZM44.4915 22.1292C40.7065 22.1292 37.1653 22.4558 34.1117 23.1202C27.6447 24.5279 24.0802 26.5776 23.221 29.3817C22.5941 31.4201 23.6971 33.2332 24.4518 33.9877L24.5679 34.0891C28.8057 37.4789 44.0852 40.2605 58.6099 40.2605C64.4733 40.2605 69.4658 39.7875 73.0302 38.8978C76.6759 37.9857 78.8123 36.6568 79.5553 34.8436L79.7759 34.3031L79.4973 33.785C76.3044 27.929 65.1235 24.9221 60.4676 23.8973C55.1152 22.7261 49.5886 22.1292 44.4915 22.1292ZM58.6216 37.7604C45.5597 37.7604 30.3383 35.2716 26.3094 32.2084L26.2514 32.1521C26.0424 31.9156 25.4038 31.0484 25.7173 30.0799C26.0424 29.0664 27.6447 27.1294 34.6806 25.5978C41.1361 24.1901 50.1691 24.4153 58.8538 26.1834C67.5268 27.9515 74.1681 30.9246 76.6411 34.1342L76.8385 34.3932L76.5947 34.6184C76.049 35.1139 74.8763 35.8347 72.38 36.4541C68.7111 37.3663 63.8347 37.7717 58.6216 37.7717V37.7604ZM26.8087 31.6678C32.2889 35.7558 59.8058 38.8415 72.2059 35.7558C74.1913 35.2603 75.2711 34.7198 75.84 34.3031C70.3366 27.8276 48.056 23.4243 34.8548 26.3073C27.7375 27.8614 26.6113 29.7646 26.4372 30.3052C26.2514 30.902 26.6462 31.4764 26.8087 31.6791V31.6678Z" fill="black"/>
<path d="M24.8465 29.8208C25.4851 28.4018 26.7507 27.2982 28.2716 26.8477C28.5039 26.7802 28.3994 26.4311 28.1671 26.4986C26.5533 26.9716 25.1949 28.1316 24.5214 29.6406C24.4286 29.8546 24.742 30.0348 24.8465 29.8208Z" fill="black"/>
<path d="M41.3683 23.7058C43.017 24.0437 44.6773 23.7734 46.326 23.627C47.8354 23.4806 49.4376 23.4468 50.8309 24.1225C51.0399 24.2239 51.2373 23.9198 51.0167 23.8072C47.9863 22.3319 44.6193 24.0099 41.4612 23.3567C41.229 23.3117 41.1245 23.6608 41.3567 23.7058H41.3683Z" fill="black"/>
<path d="M62.5111 26.0708L66.0871 27.3547C66.3077 27.4335 66.4122 27.0844 66.1916 27.0055C64.9957 26.5776 63.8115 26.1497 62.6156 25.7217C62.395 25.6429 62.2905 25.992 62.5111 26.0708Z" fill="black"/>
<path d="M42.1462 37.6028C39.5803 37.7267 37.0259 37.1298 34.8083 35.8798C34.5993 35.7672 34.4136 36.0712 34.6226 36.1951C36.8982 37.479 39.5222 38.0983 42.1462 37.9745C42.39 37.9632 42.39 37.6028 42.1462 37.6141V37.6028Z" fill="black"/>
<path d="M30.7098 27.2195C34.3555 27.0055 36.9447 24.8658 38.5469 21.6788C40.1492 18.4917 40.184 14.6853 39.1042 11.2955C38.0245 7.90572 35.9114 4.88758 33.4267 2.28613C30.9537 5.41688 28.469 8.57016 26.4255 11.9824C25.0555 14.2798 23.8596 16.8025 23.8596 19.4602C23.8596 22.118 25.3806 24.9221 27.9814 25.7668" fill="#008200"/>
<path d="M30.7099 27.7601C32.6604 27.6362 34.4601 26.9943 35.981 25.8005C37.502 24.6068 38.605 22.9851 39.3481 21.2621C41.1826 16.9939 40.4511 12.1176 38.3496 8.07465C37.1769 5.81105 35.5863 3.76142 33.8215 1.90324C33.5544 1.6217 33.1481 1.74557 32.9391 2.01586C30.3383 5.31553 27.7027 8.62647 25.6128 12.2753C23.8016 15.4398 22.4432 19.2125 24.0222 22.7374C24.7537 24.3703 26.0773 25.7105 27.8421 26.3073C28.5271 26.5326 28.8173 25.4965 28.1439 25.26C25.0439 24.2126 24.0338 20.5751 24.5911 17.7259C24.9394 15.9353 25.7405 14.2686 26.6578 12.6807C27.6215 11.0139 28.7012 9.41479 29.8391 7.86067C31.1511 6.0588 32.5327 4.31324 33.9028 2.56768L33.0204 2.6803C35.923 5.74348 38.338 9.39226 39.0694 13.5591C39.7312 17.4106 38.7908 21.7013 35.8301 24.4942C34.4368 25.8118 32.6372 26.5663 30.6982 26.6902C29.99 26.7353 29.9784 27.8164 30.6982 27.7713L30.7099 27.7601Z" fill="black"/>
<path d="M30.1641 25.6992C30.8956 22.85 31.5226 19.967 32.045 17.0615C32.5675 14.156 32.9623 11.273 33.2641 8.35624C33.4383 6.70077 33.566 5.03404 33.6705 3.36731C33.6821 3.13082 33.3106 3.13082 33.299 3.36731C32.9507 9.22339 32.1611 15.0569 30.942 20.8004C30.6053 22.4108 30.2222 23.9987 29.8158 25.5979C29.7578 25.8231 30.1177 25.9245 30.1757 25.6992H30.1641Z" fill="black"/>
<path d="M36.3757 36.4204C39.7544 37.7492 41.5308 41.6908 40.9851 45.1932C40.4394 48.6956 37.978 51.6912 35.0057 53.7521C32.0334 55.813 28.5619 57.063 25.1367 58.2793C23.6158 53.7408 22.9307 48.7181 24.5911 44.2247C26.2514 39.7313 30.7795 36.0037 35.6907 36.3303" fill="#008200"/>
<path d="M36.2248 36.9496C39.6383 38.3348 41.078 42.4227 40.3117 45.7449C39.3829 49.8217 35.9694 52.8173 32.3353 54.743C29.99 55.9818 27.4821 56.8828 24.9858 57.7724L25.6708 58.1553C24.4053 54.3489 23.6738 50.2158 24.5794 46.2517C25.3341 42.9408 27.3428 39.9339 30.3847 38.1884C31.9986 37.2649 33.8214 36.7806 35.6907 36.8933C36.4106 36.9383 36.4106 35.8459 35.6907 35.8121C32.0334 35.5982 28.5967 37.4901 26.3442 40.1929C23.7435 43.3124 22.8611 47.3216 23.1049 51.2632C23.2558 53.707 23.8132 56.1282 24.5911 58.4481C24.6723 58.7072 24.9858 58.9324 25.2761 58.831C29.8738 57.1868 34.7154 55.4413 38.1057 51.8375C40.9967 48.7743 42.599 44.4499 40.9387 40.4407C40.1027 38.4248 38.605 36.7694 36.5151 35.9248C36.2364 35.8121 35.8997 36.0486 35.8301 36.3077C35.7372 36.623 35.9462 36.8595 36.2248 36.9721V36.9496Z" fill="black"/>
<path d="M25.6012 57.3219C27.9465 55.261 29.99 52.8735 31.6619 50.2608C33.3338 47.6481 34.6458 44.7989 35.5282 41.837C36.0274 40.1816 36.3758 38.481 36.5964 36.7693C36.6312 36.544 36.248 36.544 36.2248 36.7693C35.8301 39.7874 34.9941 42.7605 33.7634 45.5646C32.5327 48.3688 30.9188 50.9703 28.9566 53.3352C27.8536 54.6641 26.6345 55.9141 25.3342 57.0628C25.16 57.2205 25.4154 57.4795 25.6012 57.3219Z" fill="black"/>
<path d="M37.0376 34.1906C33.6589 35.5195 31.8825 39.4611 32.4282 42.9635C32.9739 46.4659 35.4353 49.4615 38.4076 51.5224C41.3799 53.5832 44.8515 54.8333 48.2766 56.0496C49.7975 51.5111 50.4826 46.4884 48.8223 41.995C47.162 37.5015 42.6338 33.7739 37.7226 34.1005" fill="#008200"/>
<path d="M36.8982 33.6725C33.1016 35.2154 31.2671 39.4385 31.9173 43.245C32.672 47.7159 36.3177 51.1507 40.2188 53.2791C42.7267 54.6418 45.432 55.6103 48.1256 56.5788C48.4159 56.6802 48.7294 56.4549 48.8106 56.1959C50.1691 52.1079 50.8889 47.637 49.8324 43.4026C48.9616 39.9115 46.7091 36.747 43.4814 34.9338C41.7398 33.9541 39.7428 33.436 37.7226 33.5487C37.0027 33.5937 37.0027 34.6748 37.7226 34.6298C41.1012 34.4383 44.2013 36.1951 46.2795 38.6952C48.7178 41.6345 49.4376 45.4748 49.1706 49.1574C49.008 51.4547 48.4623 53.7071 47.7309 55.8918L48.4159 55.5089C44.1664 53.9886 39.7196 52.4007 36.4803 49.2024C33.7402 46.4996 32.0566 42.6594 33.357 38.9092C33.9956 37.0961 35.3308 35.4406 37.1769 34.6861C37.4555 34.5735 37.6529 34.3257 37.5716 34.0216C37.502 33.7626 37.1653 33.5261 36.8866 33.6387L36.8982 33.6725Z" fill="black"/>
<path d="M48.0792 54.8446C45.757 52.8062 43.7368 50.4413 42.0765 47.8623C40.4162 45.2834 39.139 42.5018 38.2683 39.5962C37.769 37.952 37.4091 36.2628 37.1885 34.551C37.1536 34.3258 36.7821 34.3258 36.8169 34.551C37.2117 37.5917 38.036 40.576 39.2784 43.3914C40.5207 46.2069 42.1578 48.8984 44.1548 51.3084C45.2694 52.6598 46.5001 53.9324 47.8237 55.0923C47.9979 55.25 48.2649 54.991 48.0908 54.8333L48.0792 54.8446Z" fill="black"/>
<path d="M67.2134 36.5781C63.8347 37.9069 62.0583 41.8485 62.604 45.3509C63.1497 48.8533 65.6111 51.8489 68.5834 53.9098C71.5557 55.9707 75.0272 57.2207 78.4523 58.437C79.9733 53.8985 80.6583 48.8758 78.998 44.3824C77.3377 39.889 72.8096 36.1614 67.8984 36.488" fill="#008200"/>
<path d="M67.0624 36.06C63.2658 37.6028 61.4313 41.826 62.0815 45.6324C62.8362 50.1033 66.4819 53.5381 70.383 55.6666C72.8909 57.0293 75.5962 57.9978 78.2898 58.9663C78.5801 59.0676 78.8935 58.8424 78.9748 58.5834C80.3333 54.4954 81.0531 50.0245 79.9965 45.7901C79.1258 42.299 76.8733 39.1344 73.6456 37.3213C71.904 36.3415 69.907 35.8235 67.8868 35.9361C67.1669 35.9812 67.1669 37.0623 67.8868 37.0172C71.2654 36.8258 74.3654 38.5826 76.4437 41.0827C78.8819 44.022 79.6018 47.8622 79.3347 51.5448C79.1722 53.8422 78.6265 56.0945 77.895 58.2793L78.5801 57.8964C74.3306 56.3761 69.8838 54.7882 66.6444 51.5899C63.9044 48.887 62.2208 45.0468 63.5212 41.2967C64.1598 39.4835 65.495 37.8281 67.3411 37.0735C67.6197 36.9609 67.8171 36.7132 67.7358 36.4091C67.6662 36.1501 67.3295 35.9136 67.0508 36.0262L67.0624 36.06Z" fill="black"/>
<path d="M78.255 57.2208C75.9329 55.1824 73.9127 52.8175 72.2523 50.2385C70.592 47.6596 69.3149 44.878 68.4441 41.9725C67.9448 40.3283 67.5849 38.639 67.3643 36.9272C67.3295 36.702 66.9579 36.702 66.9928 36.9272C67.3875 39.9679 68.2119 42.9522 69.4542 45.7677C70.6965 48.5831 72.3336 51.2746 74.3306 53.6846C75.4452 55.036 76.676 56.3086 77.9996 57.4685C78.1737 57.6262 78.4408 57.3672 78.2666 57.2095L78.255 57.2208Z" fill="black"/>
<path d="M66.5515 34.3596C69.9302 35.6884 71.7066 39.63 71.1609 43.1324C70.6152 46.6348 68.1538 49.6304 65.1815 51.6913C62.2092 53.7522 58.7376 55.0022 55.3125 56.2185C53.7916 51.68 53.1065 46.6573 54.7668 42.1639C56.4271 37.6705 60.9552 33.9429 65.8665 34.2695" fill="#008200"/>
<path d="M66.4006 34.8775C69.8141 36.2627 71.2538 40.3507 70.4875 43.6729C69.5587 47.7497 66.1452 50.7453 62.5111 52.671C60.1657 53.9098 57.6579 54.8107 55.1616 55.7004L55.8466 56.0833C54.5811 52.2769 53.8496 48.1438 54.7552 44.1797C55.5099 40.8688 57.5185 37.8619 60.5605 36.1163C62.1744 35.1929 63.9972 34.7086 65.8665 34.8212C66.5864 34.8663 66.5864 33.7739 65.8665 33.7401C62.2092 33.5261 58.7725 35.4181 56.52 38.1209C53.9193 41.2404 53.0369 45.2496 53.2807 49.1912C53.4316 51.6349 53.9889 54.0562 54.7668 56.3761C54.8481 56.6351 55.1616 56.8604 55.4519 56.759C60.0496 55.1148 64.8912 53.3692 68.2815 49.7655C71.1725 46.7023 72.7748 42.3778 71.1145 38.3687C70.2785 36.3528 68.7807 34.6974 66.6909 33.8527C66.4122 33.7401 66.0755 33.9766 66.0058 34.2356C65.9129 34.551 66.1219 34.7875 66.4006 34.9001V34.8775Z" fill="black"/>
<path d="M55.777 55.2498C58.1223 53.1889 60.1658 50.8015 61.8377 48.1888C63.5096 45.576 64.8216 42.7268 65.704 39.765C66.2032 38.1095 66.5515 36.409 66.7721 34.6972C66.807 34.472 66.4238 34.472 66.4006 34.6972C66.0058 37.7154 65.1699 40.6885 63.9392 43.4926C62.7085 46.2968 61.0946 48.8982 59.1324 51.2632C58.0294 52.5921 56.8103 53.8421 55.5099 54.9908C55.3358 55.1485 55.5912 55.4075 55.777 55.2498Z" fill="black"/>
<path d="M69.222 27.2195C65.5763 27.0055 62.9871 24.8658 61.3849 21.6788C59.7826 18.4917 59.7478 14.6853 60.8276 11.2955C61.9074 7.90572 64.0205 4.88758 66.5051 2.28613C68.9782 5.41688 71.4628 8.57016 73.5063 11.9824C74.8763 14.2798 76.0722 16.8025 76.0722 19.4602C76.0722 22.118 74.5512 24.9221 71.9505 25.7668" fill="#008200"/>
<path d="M69.222 26.6789C67.5036 26.5663 65.8665 25.9694 64.5429 24.8883C63.1613 23.7509 62.1163 22.1968 61.4778 20.5526C59.9103 16.5547 60.6882 12.0838 62.6736 8.35614C63.7883 6.27273 65.2512 4.40329 66.8883 2.68025L66.0059 2.56763C68.4441 5.65334 70.8939 8.76157 72.9257 12.1175C74.6673 15.0005 76.2928 18.4804 75.0621 21.8364C74.5048 23.3567 73.3786 24.7194 71.7763 25.2599C71.1029 25.4852 71.3932 26.5325 72.0782 26.3073C75.3407 25.2036 76.8849 21.69 76.5714 18.5255C76.3741 16.5659 75.631 14.719 74.7021 12.9847C73.7153 11.1603 72.5542 9.426 71.3467 7.73675C69.9534 5.78848 68.4673 3.90778 66.9811 2.02707C66.7722 1.76805 66.3774 1.63291 66.0988 1.91446C62.9639 5.21413 60.3515 9.20077 59.6897 13.728C59.086 17.8948 60.2006 22.4896 63.4632 25.4176C65.0538 26.8478 67.0508 27.6249 69.2104 27.7713C69.9302 27.8163 69.9302 26.7352 69.2104 26.6902L69.222 26.6789Z" fill="black"/>
<path d="M70.1276 25.5979C68.6647 19.8995 67.6313 14.111 67.0392 8.26615C66.8767 6.6332 66.7373 5.00026 66.6444 3.36731C66.6328 3.13082 66.2613 3.13082 66.2729 3.36731C66.4471 6.30661 66.7373 9.23465 67.1321 12.1514C67.5268 15.0682 68.0261 17.9399 68.6298 20.8117C68.9782 22.4446 69.3613 24.0776 69.7793 25.688C69.8373 25.9132 70.1973 25.8231 70.1392 25.5866L70.1276 25.5979Z" fill="black"/>
<path d="M58.2732 22.0504C59.4111 18.6832 57.4605 14.8204 54.3605 12.9622C51.2605 11.1041 47.3013 10.9802 43.7601 11.8473C40.2189 12.7145 36.9911 14.4713 33.8215 16.2169C36.4106 20.2823 39.917 24.0325 44.5264 25.7105C49.1358 27.3772 54.9875 26.4537 57.9133 22.6135" fill="#008200"/>
<path d="M58.8189 22.1967C60.0613 18.4128 57.7972 14.2572 54.3837 12.3427C50.32 10.0679 45.2927 10.5634 41.0664 12.1175C38.4424 13.086 35.9926 14.4149 33.5544 15.755C33.299 15.9014 33.1945 16.2505 33.357 16.4983C35.5746 19.9669 38.4192 23.2441 42.1462 25.2374C45.5481 27.0618 49.6582 27.6249 53.3736 26.3861C55.3822 25.7104 57.1238 24.5392 58.4009 22.8837C58.8305 22.3206 57.8669 21.78 57.4373 22.3319C55.3242 25.0685 51.632 26.1608 48.2301 25.9356C44.4451 25.6878 41.078 23.6945 38.4541 21.1381C36.8518 19.584 35.505 17.8159 34.3207 15.9577L34.1233 16.701C38.0245 14.5613 42.123 12.2864 46.6859 11.9373C50.6335 11.6333 54.8481 12.8383 56.9496 16.3069C57.983 18.0074 58.3661 20.0232 57.7508 21.9152C57.5302 22.5796 58.6099 22.8612 58.8305 22.208L58.8189 22.1967Z" fill="black"/>
<path d="M34.8896 16.8699C38.0012 16.4758 41.1709 16.4983 44.2709 16.9488C47.3709 17.3992 50.4245 18.2439 53.2807 19.4939C54.8946 20.1921 56.4504 21.0255 57.9249 21.9602C58.1223 22.0841 58.3081 21.78 58.1107 21.6449C55.4635 19.9669 52.5841 18.6606 49.5653 17.7484C46.5466 16.8362 43.4001 16.3294 40.2537 16.2393C38.4541 16.1942 36.666 16.2843 34.878 16.5096C34.6458 16.5434 34.6458 16.9037 34.878 16.8699H34.8896Z" fill="black"/>
<path d="M60.456 22.9963C57.2167 24.6405 52.9788 23.4017 50.5755 20.7327C48.1721 18.0637 47.4058 14.3023 47.7077 10.7774C48.0095 7.25246 49.2751 3.87396 50.529 0.551758C55.0804 2.36489 59.4807 5.10148 61.9306 9.24578C64.3804 13.3901 64.392 19.1335 60.9669 22.5571" fill="#008200"/>
<path d="M60.1774 22.5346C56.8336 24.1901 52.6305 22.591 50.5058 19.7981C47.9747 16.4533 47.8354 12.0162 48.683 8.10842C49.2287 5.57454 50.1459 3.13075 51.0631 0.709491L50.3781 1.09239C53.9657 2.52262 57.4489 4.5272 59.9568 7.45524C62.2557 10.1355 63.5096 13.6379 63.0104 17.129C62.7433 19.021 61.9306 20.8116 60.5721 22.1968C60.0729 22.7036 60.8624 23.4694 61.3617 22.9626C64.0553 20.226 64.7287 16.2281 63.8811 12.6244C62.9639 8.73908 60.2238 5.60833 56.9497 3.3222C55.0107 1.9708 52.886 0.923463 50.68 0.0450512C50.3897 -0.0675657 50.0878 0.180191 49.995 0.427949C48.3114 4.88758 46.5931 9.5837 47.2433 14.4037C47.7889 18.5142 50.1227 22.3657 54.3025 23.796C56.404 24.5167 58.7493 24.4717 60.7579 23.4806C61.3965 23.1653 60.8392 22.2306 60.189 22.5459L60.1774 22.5346Z" fill="black"/>
<path d="M50.9935 1.49772C51.098 4.57216 51.6553 7.62407 52.619 10.5521C53.5826 13.4802 54.9759 16.2731 56.7291 18.8407C57.716 20.2822 58.819 21.6561 60.0265 22.9287C60.189 23.0976 60.4561 22.8499 60.2935 22.6697C58.1688 20.4286 56.3808 17.8947 54.9759 15.1694C53.571 12.4441 52.5609 9.56109 51.9572 6.588C51.6205 4.91001 51.4231 3.19823 51.365 1.48645C51.365 1.24996 50.9819 1.24996 50.9935 1.48645V1.49772Z" fill="black"/>
<path d="M25.5896 29.2355C21.2357 27.6476 16.4753 26.0484 12.0285 27.3886C8.84722 28.3346 6.2929 30.7108 4.50488 33.4248C2.71686 36.1389 1.63708 39.2359 0.568909 42.2878C4.70226 43.6617 9.07943 44.3712 13.445 44.405C16.1154 44.4163 18.8207 44.1685 21.3169 43.2563C23.8132 42.3441 26.0889 40.6886 27.3544 38.4138C28.6199 36.1389 28.7361 33.1883 27.308 31.0036" fill="#008200"/>
<path d="M25.7289 28.7061C21.3866 27.1295 16.5102 25.4628 11.8659 26.8592C7.81387 28.0755 4.85319 31.3639 2.96067 34.9226C1.74156 37.2312 0.870774 39.6863 0.0115946 42.1413C-0.0929002 42.4341 0.1277 42.7157 0.406353 42.8058C5.56143 44.5063 11.239 45.3397 16.6727 44.7991C21.2937 44.3374 26.2862 42.3328 28.202 37.9069C29.2005 35.6096 29.154 32.873 27.784 30.7107C27.4124 30.1139 26.4372 30.6657 26.8203 31.2625C27.9581 33.0532 28.0278 35.2717 27.2847 37.22C26.5417 39.1683 25.0207 40.6548 23.2675 41.7021C19.1109 44.191 13.7469 44.1234 9.0562 43.5941C6.21162 43.2788 3.40187 42.6481 0.685005 41.7584L1.07976 42.4229C2.46142 38.47 3.91273 34.3483 6.90825 31.24C8.18541 29.9224 9.718 28.785 11.4712 28.1318C13.5495 27.3547 15.8135 27.2759 17.9963 27.625C20.5506 28.0192 23.0004 28.8863 25.4154 29.7535C26.0888 30.0012 26.3791 28.9539 25.7173 28.7061H25.7289Z" fill="black"/>
<path d="M26.0308 30.3392C18.7974 30.9135 11.7498 33.3573 5.77042 37.3552C4.08689 38.4814 2.48464 39.7427 0.986878 41.1053C0.638562 41.4207 1.16104 41.9387 1.50935 41.6121C6.69926 36.8935 13.1547 33.56 20.0746 31.9721C22.0368 31.5216 24.0222 31.2176 26.0308 31.0599C26.5068 31.0261 26.5068 30.2941 26.0308 30.3392Z" fill="black"/>
<path d="M74.4002 32.1633C75.0737 31.4876 75.898 30.9583 76.8036 30.6317C80.7744 29.2466 84.989 28.0866 88.9715 29.2803C92.1527 30.2263 94.7071 32.6025 96.4951 35.3166C98.2831 38.0307 99.3629 41.1276 100.431 44.1796C96.2977 45.5535 91.9205 46.263 87.555 46.2968C84.8846 46.308 82.1793 46.0603 79.683 45.1481C77.1868 44.2359 74.9111 42.5804 73.6456 40.3055C72.7515 38.7064 72.4381 36.7694 72.8096 35.0125C73.0418 33.9427 73.6223 32.9629 74.4002 32.1746V32.1633Z" fill="#008200"/>
<path d="M74.795 32.5463C75.6078 31.7467 76.5366 31.2962 77.6164 30.9246C78.6962 30.5529 79.8456 30.2038 80.9834 29.9223C83.2939 29.3592 85.7321 29.0777 88.0659 29.607C92.1528 30.5304 95.0902 33.7513 96.9711 37.2311C98.1902 39.4947 99.0378 41.916 99.8854 44.326L100.28 43.6615C95.4037 45.2607 90.1441 46.0603 84.9891 45.6774C80.6351 45.3621 75.7122 43.6616 73.843 39.4835C72.8212 37.1973 72.9606 34.4044 74.795 32.5463C75.2943 32.0395 74.5048 31.2737 74.0055 31.7805C72.2523 33.5598 71.7647 36.0149 72.3104 38.3798C72.8561 40.7448 74.3422 42.5804 76.2579 43.9544C80.519 47.0288 86.3359 47.1414 91.3981 46.6346C94.5213 46.3306 97.6097 45.6774 100.582 44.6976C100.861 44.6075 101.07 44.326 100.977 44.0332C99.4558 39.6862 97.8187 35.1477 94.3472 31.8706C92.8262 30.4403 91.0033 29.2916 88.9599 28.706C86.5449 28.0191 83.9789 28.1655 81.5523 28.6835C80.1126 28.9876 78.7194 29.4155 77.3261 29.8772C76.0606 30.3052 74.9576 30.8345 74.0055 31.7692C73.5063 32.2647 74.2958 33.0305 74.795 32.535V32.5463Z" fill="black"/>
<path d="M74.528 32.6701C81.7381 33.2445 88.7625 35.8347 94.7187 39.7988C96.4022 40.925 97.9929 42.1637 99.479 43.5151C99.8273 43.8305 100.361 43.3237 100.001 43.0084C94.6142 38.1095 87.8453 34.5959 80.67 32.9179C78.6497 32.4449 76.5947 32.1183 74.528 31.9494C74.052 31.9156 74.052 32.6364 74.528 32.6701Z" fill="black"/>
<path d="M61.4662 42.0398C61.5939 41.0939 61.7448 40.0353 61.919 38.8753C62.0931 37.7153 62.2905 36.4991 62.5111 35.2603C62.7549 34.0215 62.9755 32.7602 63.1961 31.4989C63.44 30.2263 63.6838 28.9988 63.916 27.8388C64.4501 25.1023 65.0422 22.253 65.646 19.3926L65.7505 18.8858L73.0419 17.9511L72.7981 18.9646C72.2175 21.4084 71.6486 23.7846 71.1029 26.1045C70.8707 27.0843 70.6269 28.1316 70.3831 29.1902C70.1392 30.2488 69.9186 31.2737 69.698 32.2872C69.489 33.2895 69.2917 34.2693 69.1175 35.204C69.013 35.7896 68.9201 36.3302 68.8389 36.8369C69.1175 36.8369 69.4078 36.8257 69.698 36.8257C70.3134 36.8032 70.8823 36.7919 71.3583 36.7919H72.0666L72.1014 37.4789C72.1246 37.8617 72.1595 38.2559 72.1943 38.6388C72.2407 38.9992 72.2756 39.337 72.322 39.6411C72.3917 39.9564 72.4265 40.2492 72.4613 40.5195C72.4962 40.711 72.5194 40.8461 72.5426 40.9137L72.7748 41.8146H71.1958C71.0797 41.7921 70.952 41.7808 70.8127 41.7808C70.1509 41.7808 69.4426 41.8033 68.6995 41.8371C67.9797 41.8822 67.2366 41.9385 66.4935 42.0286C65.7621 42.1074 65.019 42.22 64.3108 42.3664C63.6141 42.4903 62.9872 42.6367 62.4415 42.8169L61.3152 43.1773L61.4778 42.0286L61.4662 42.0398ZM51.3534 18.9646L63.3239 17.9736L62.9872 19.0097C62.8478 19.4489 62.7201 19.9106 62.6156 20.3611C62.4995 20.789 62.395 21.2057 62.2905 21.6337C62.2092 22.0278 62.1396 22.3994 62.0699 22.7373L61.9654 23.2666L61.4081 23.3229C61.1875 23.3454 60.8508 23.368 60.4328 23.3905H60.398C60.0265 23.3905 59.6085 23.4017 59.1673 23.4243H57.1354L56.2995 27.5798C56.6246 27.5686 56.9497 27.546 57.2516 27.5348C57.7276 27.5123 58.2384 27.501 58.7493 27.501C59.2253 27.501 59.5737 27.501 59.7943 27.4672L60.7347 27.3884L60.607 28.2893C60.5141 28.8749 60.4328 29.4605 60.34 30.0349C60.2819 30.5867 60.189 31.1948 60.0729 31.7917L59.9684 32.3323L59.4111 32.3886C59.1789 32.4111 58.819 32.4336 58.2965 32.4561C57.7972 32.4561 57.3096 32.4561 56.8336 32.4899C56.4388 32.5012 56.0092 32.5237 55.568 32.535L54.7553 36.7694L59.4111 36.0599L58.9467 41.1502L46.8137 42.9746L51.3766 18.9646H51.3534ZM10.2405 41.9497C10.8907 39.0217 11.5061 36.1274 12.0634 33.3683C12.2724 32.1859 12.5046 30.9358 12.7484 29.652C12.9806 28.3794 13.2012 27.1068 13.3986 25.8455C13.6192 24.5842 13.8049 23.368 13.9559 22.1967C14.13 21.003 14.2578 19.9219 14.339 18.9646L14.4087 18.2439L15.1518 18.3115C15.651 18.3565 16.2083 18.3903 16.8353 18.4353C17.4507 18.4579 18.0428 18.4916 18.6001 18.5254C19.2271 18.5705 19.8656 18.5817 20.4926 18.5817H21.4447L21.2125 19.4827C21.1892 19.5615 21.166 19.6966 21.1196 19.9106C21.0731 20.1471 21.0267 20.4287 20.957 20.7665C20.8874 21.0931 20.8177 21.4422 20.7248 21.8364C20.6668 22.1967 20.5971 22.5571 20.5158 22.9287C20.6552 22.726 20.7829 22.5121 20.9222 22.3094C21.3634 21.6337 21.793 20.9805 22.1994 20.3723C22.6057 19.753 22.954 19.2124 23.2327 18.7732L23.4301 18.4579L23.8016 18.4241C24.8814 18.3452 25.9728 18.2439 27.041 18.1425C28.1091 18.0412 29.1889 17.906 30.2571 17.7371L32.0683 17.4556L30.9769 18.8858C29.9668 20.2034 28.9683 21.521 28.0162 22.7936C27.5983 23.3454 27.1803 23.9085 26.7507 24.4941C26.3443 25.0685 25.9263 25.6541 25.52 26.2284C25.1136 26.7915 24.7188 27.3433 24.3589 27.8614C24.0919 28.2781 23.8248 28.6722 23.5926 29.0438C24.0454 31.0372 24.5911 32.9967 25.2065 34.8549C25.8567 36.8369 26.5185 38.864 27.1919 40.9249L27.517 41.9047L26.4488 41.8596C25.9612 41.8371 25.4619 41.8259 24.9511 41.8259C24.4054 41.8033 23.9061 41.7921 23.4185 41.7921C22.8031 41.7921 22.1994 41.7921 21.6188 41.8259C21.0151 41.8259 20.4113 41.8259 19.796 41.8596L19.1226 41.8822L19.0297 41.2403C18.8323 39.8889 18.6117 38.4474 18.3795 36.9496L18.1589 35.4405C18.1473 35.5081 18.1241 35.5869 18.1125 35.6545C17.9383 36.5667 17.7641 37.4676 17.59 38.3347C17.3926 39.3483 17.1836 40.3844 16.9746 41.4655L16.8701 41.961L10.0083 42.952L10.2289 41.9385L10.2405 41.9497ZM34.0189 42.9183C33.1945 42.9183 32.4398 42.7718 31.7664 42.479C31.0698 42.1525 30.4661 41.6907 29.9668 41.1164C29.4675 40.5082 29.0728 39.765 28.7825 38.8753C28.5155 37.9744 28.3878 36.9158 28.3878 35.722C28.3878 34.5283 28.5503 33.1881 28.8638 31.8367C29.1773 30.4966 29.6069 29.1565 30.141 27.8388C30.675 26.5212 31.3485 25.2374 32.1264 24.0549C32.9159 22.8612 33.7867 21.7801 34.7387 20.8679C35.6908 19.9219 36.7474 19.1448 37.8504 18.593C38.9998 18.0187 40.2073 17.7258 41.4496 17.7258C42.5758 17.7258 43.5163 17.9623 44.271 18.4466C45.0141 18.8745 45.6062 19.4827 46.0242 20.2259C46.4189 20.8791 46.7092 21.6562 46.8834 22.5121C47.0459 23.3342 47.1272 24.1675 47.1272 24.9896C47.1272 26.769 46.9182 28.4695 46.5234 30.0574C46.1403 31.6115 45.6294 33.0755 44.9792 34.3932C44.329 35.7108 43.5511 36.9045 42.6687 37.9518C41.8095 38.9767 40.9039 39.8776 39.9519 40.6209C38.9882 41.3641 37.9897 41.9385 37.0028 42.3326C35.9694 42.7268 34.9826 42.9295 34.0421 42.9295L34.0189 42.9183ZM35.4238 36.1725C35.5399 36.2288 35.656 36.2513 35.7837 36.2513C36.5848 36.2513 37.2698 35.9923 37.8968 35.4517C38.5818 34.8661 39.1623 34.1229 39.6152 33.267C40.0796 32.3773 40.4511 31.4088 40.6949 30.3952C40.962 29.3704 41.1013 28.447 41.1013 27.6249C41.1013 27.4109 41.0781 27.1631 41.0432 26.9041V26.8591C41.02 26.6451 40.9736 26.4424 40.8923 26.2622L40.8691 26.2172C40.8227 26.0933 40.7646 26.0032 40.6485 25.9244L40.6137 25.9018L40.5788 25.868C40.5788 25.868 40.4279 25.8005 40.2886 25.8005C39.7197 25.8005 39.2204 25.9356 38.7444 26.2059C38.2335 26.4987 37.7691 26.9041 37.3511 27.3996C36.9331 27.8952 36.5616 28.492 36.2365 29.1452C35.8998 29.8209 35.6095 30.5079 35.3541 31.2174C35.1335 31.8818 34.9709 32.5575 34.8664 33.2107C34.762 33.8638 34.7155 34.4382 34.7155 34.8999C34.7155 35.0576 34.7503 35.2153 34.8084 35.3954C34.8664 35.5644 34.9477 35.722 35.0522 35.8459C35.1451 35.9698 35.2728 36.0824 35.4121 36.1725H35.4238ZM82.609 41.916C82.6902 41.2177 82.7831 40.5308 82.8644 39.8551C82.9224 39.292 82.9805 38.7064 83.0269 38.1208C83.0618 37.8505 83.085 37.6027 83.1082 37.3775H81.6685L80.3913 41.8596C80.3913 41.8596 78.8587 42.0624 78.2086 42.1412C77.5351 42.2088 76.9314 42.2651 76.3741 42.3326C75.6891 42.4115 75.0041 42.5016 74.3306 42.5804L73.1928 42.7268L73.5179 41.6569C74.3887 38.8528 75.2479 36.0937 76.0954 33.3796C76.4438 32.2422 76.8037 31.0597 77.1636 29.8209C77.5584 28.5709 77.9415 27.3433 78.3014 26.1158C78.6962 24.8658 79.0677 23.6833 79.4044 22.5459C79.7528 21.4197 80.0546 20.3723 80.3101 19.4376L80.4494 18.9421L80.9835 18.9083C82.4464 18.807 83.9558 18.6718 85.4651 18.5254C86.9861 18.379 88.4723 18.1763 89.9004 17.9286L90.864 17.7596L90.7711 18.7056C90.7015 19.3813 90.6318 20.2147 90.5389 21.2282C90.4693 22.1967 90.4112 23.2891 90.3416 24.4603C90.2719 25.6428 90.2138 26.8703 90.1442 28.1542C90.0745 29.438 90.0165 30.6993 89.9468 31.9494C89.8423 34.8436 89.7146 37.9293 89.5869 41.1952L89.5637 41.7808L88.9599 41.8822C88.2981 41.9835 87.6363 42.0736 86.9745 42.1412C86.4404 42.22 85.8483 42.3214 85.2097 42.4227L82.4696 42.8619L82.5857 41.9047L82.609 41.916ZM82.8412 32.7489C82.8992 32.7489 82.9689 32.7489 83.0269 32.7489C83.2011 32.7377 83.3636 32.7264 83.5146 32.7264V32.6588C83.5494 32.366 83.5842 32.0282 83.6075 31.6678C83.6539 31.2399 83.7003 30.8119 83.7352 30.3502C83.7816 29.8885 83.8281 29.4267 83.8629 28.9875C83.8745 28.8411 83.8861 28.6947 83.8977 28.5483L82.8295 32.7602L82.8412 32.7489Z" fill="#8BB5C9"/>
<path d="M41.4496 18.4241C42.4249 18.4241 43.226 18.6268 43.8646 19.021C44.5148 19.4039 45.014 19.9106 45.3624 20.5413C45.7339 21.1494 45.9893 21.8477 46.1403 22.6247C46.2912 23.4018 46.3725 24.1788 46.3725 24.9671C46.3725 26.6902 46.1751 28.3231 45.7803 29.866C45.4088 31.3863 44.9095 32.7828 44.2826 34.0666C43.6556 35.3279 42.9125 36.4653 42.065 37.4789C41.2406 38.4699 40.3698 39.3258 39.4526 40.0353C38.5354 40.7335 37.6181 41.2628 36.6777 41.6457C35.7488 42.0061 34.8548 42.1863 34.0073 42.1863C33.2874 42.1863 32.6372 42.0624 32.0567 41.8034C31.4646 41.5331 30.9653 41.1389 30.5241 40.6322C30.0945 40.1029 29.7462 39.4384 29.4791 38.6388C29.2353 37.8167 29.1192 36.837 29.1192 35.6995C29.1192 34.5621 29.2702 33.2783 29.572 31.9719C29.8739 30.6656 30.2919 29.3705 30.8144 28.0866C31.3368 26.8028 31.9754 25.5753 32.7417 24.4153C33.4964 23.2554 34.344 22.2306 35.2496 21.3521C36.1668 20.4512 37.1421 19.7305 38.187 19.2012C39.232 18.6719 40.3118 18.4128 41.4496 18.4128M35.7837 36.9608C36.759 36.9608 37.6297 36.6343 38.3844 35.9811C39.1391 35.3279 39.7777 34.5283 40.2769 33.5823C40.7762 32.6364 41.1593 31.6228 41.4148 30.5529C41.6934 29.4831 41.8328 28.5033 41.8328 27.6136C41.8328 27.3659 41.8095 27.0843 41.7631 26.7915C41.7399 26.4987 41.6818 26.2172 41.5657 25.9694C41.4844 25.7217 41.3219 25.5077 41.1129 25.3388C40.9155 25.1473 40.6485 25.0572 40.3002 25.0572C39.6035 25.0572 38.965 25.2262 38.3728 25.564C37.7807 25.9019 37.2582 26.3523 36.7706 26.9267C36.3178 27.4785 35.9114 28.1092 35.5631 28.8186C35.2148 29.5169 34.9129 30.2264 34.6458 30.9696C34.402 31.6904 34.2279 32.3886 34.1234 33.0868C34.0189 33.785 33.9608 34.3819 33.9608 34.8887C33.9608 35.1252 34.0073 35.3617 34.0885 35.6207C34.1698 35.8685 34.2975 36.0937 34.4485 36.2851C34.5994 36.4766 34.7852 36.6455 35.0058 36.7919C35.2496 36.9158 35.4934 36.9834 35.7604 36.9834M30.3616 18.4691C29.3398 19.798 28.3529 21.1044 27.4009 22.3882C26.9829 22.94 26.5649 23.5031 26.1353 24.1C25.7173 24.6856 25.311 25.2712 24.893 25.8343C24.475 26.4086 24.0919 26.9492 23.7203 27.4785C23.372 28.0078 23.0585 28.4921 22.7799 28.9313C23.2559 31.0597 23.8248 33.1093 24.475 35.0914C25.1252 37.0735 25.787 39.0893 26.4604 41.1615C25.9612 41.1389 25.4503 41.1277 24.9278 41.1277C24.4053 41.1051 23.8945 41.0939 23.3952 41.0939C22.7683 41.0939 22.1529 41.0939 21.5724 41.1277C20.9802 41.1277 20.3765 41.1277 19.7495 41.1615C19.5521 39.7875 19.3315 38.3573 19.0993 36.8595C18.8787 35.3392 18.6814 33.8977 18.484 32.535L17.8918 33.1994C17.7409 33.8301 17.5667 34.6072 17.3694 35.5419C17.1952 36.4653 17.0211 37.3663 16.8469 38.2334C16.6495 39.247 16.4405 40.283 16.2315 41.3642L10.9487 42.1187C11.5989 39.1681 12.2143 36.3077 12.7716 33.526C12.9922 32.321 13.2128 31.0822 13.4566 29.7984C13.7004 28.5146 13.9094 27.242 14.1068 25.9694C14.3274 24.7081 14.5132 23.4806 14.6641 22.2981C14.8383 21.0931 14.966 20.012 15.0589 19.0435C15.5581 19.0885 16.127 19.1223 16.754 19.1674C17.381 19.1899 17.9731 19.2237 18.5188 19.2575C19.169 19.3025 19.8192 19.325 20.4694 19.325C20.4462 19.4039 20.4113 19.5728 20.3765 19.798C20.3301 20.0345 20.2836 20.3161 20.2139 20.6539C20.1443 20.9692 20.0746 21.3296 19.9817 21.7238C19.9121 22.1292 19.8424 22.5234 19.7495 22.9288C19.5754 23.8522 19.378 24.8996 19.1574 26.0595L19.3548 26.0257C19.5754 25.6879 19.8772 25.2262 20.272 24.6406C20.69 24.0324 21.108 23.3905 21.5375 22.7148C21.9671 22.0391 22.3967 21.3972 22.8031 20.7891C23.2211 20.1584 23.5578 19.6178 23.848 19.1786C24.9394 19.0998 26.0192 18.9984 27.1106 18.8971C28.202 18.7957 29.2818 18.6493 30.3732 18.4917M90.0048 18.6831C89.9352 19.3588 89.8655 20.2034 89.7726 21.217C89.703 22.208 89.6449 23.2892 89.5753 24.4716C89.5056 25.6541 89.4475 26.8816 89.3779 28.1655C89.3082 29.4493 89.2502 30.7106 89.1805 31.9607C89.076 34.8662 88.9483 37.9519 88.8206 41.2178C88.1704 41.3191 87.5202 41.4092 86.87 41.4655C86.3243 41.5444 85.7322 41.6457 85.082 41.7471C84.4318 41.8484 83.8397 41.9498 83.3172 42.0286C83.3985 41.3304 83.4913 40.6434 83.5726 39.979C83.6423 39.3934 83.6887 38.7965 83.7352 38.2109C83.8048 37.6253 83.8513 37.1185 83.8977 36.6906H81.0647L79.7644 41.2403C79.2883 41.3079 78.7194 41.3754 78.0692 41.4655C77.419 41.5331 76.8037 41.5894 76.2464 41.657C75.5497 41.7358 74.8647 41.8259 74.1913 41.9047C75.0621 39.1006 75.9213 36.3415 76.7688 33.6274C77.1172 32.49 77.4771 31.2962 77.8486 30.0574C78.2434 28.8186 78.6149 27.5799 78.9865 26.3636C79.3812 25.1248 79.7411 23.9311 80.0895 22.7936C80.4378 21.6562 80.7396 20.6089 81.0067 19.6629C82.4812 19.5615 83.979 19.4264 85.5 19.28C87.0442 19.1336 88.5419 18.9309 89.9932 18.6831M85.1052 22.8499L84.6176 22.8837L83.8629 25.5978L81.8426 33.526H82.2954C82.5393 33.5035 82.7715 33.4922 83.0153 33.4922C83.2707 33.4697 83.5146 33.4585 83.7352 33.4585C83.9558 33.4359 84.1067 33.4134 84.188 33.3909C84.188 33.267 84.188 33.053 84.2228 32.7602C84.2692 32.4449 84.3041 32.0958 84.3157 31.7129C84.3621 31.3075 84.397 30.8795 84.4434 30.4178C84.4898 29.9561 84.5247 29.5056 84.5711 29.0551C84.6524 27.9853 84.7685 26.8253 84.8962 25.5753L85.0936 22.8274M62.2325 18.7845C62.0815 19.2462 61.9538 19.7192 61.8377 20.2035C61.7332 20.6089 61.6171 21.0256 61.5126 21.4648C61.4313 21.8814 61.3501 22.2643 61.2804 22.6022C61.0598 22.6247 60.7463 22.6472 60.3399 22.6698C59.9452 22.6698 59.5272 22.6698 59.0744 22.7035H56.462L55.3242 28.3569C55.9976 28.3119 56.6246 28.2781 57.2167 28.2668C57.6927 28.2443 58.1804 28.233 58.6796 28.233C59.1789 28.233 59.5504 28.233 59.7826 28.1993C59.7014 28.7849 59.6085 29.3705 59.5272 29.9336C59.4575 30.5079 59.3763 31.0822 59.2718 31.6679C59.0512 31.6904 58.6912 31.7129 58.192 31.7354C57.716 31.7354 57.2283 31.7354 56.7291 31.7692C56.1601 31.7917 55.5448 31.8143 54.8714 31.8368L53.7684 37.6478L58.5287 36.9158L58.2036 40.5195L47.6845 42.0962L51.9571 19.6291L62.2557 18.7732M72.055 18.807C71.4628 21.2508 70.9055 23.627 70.3598 25.9469C70.116 26.9379 69.8838 27.974 69.64 29.0439C69.3962 30.1025 69.1756 31.1273 68.955 32.1408C68.7344 33.1544 68.537 34.1342 68.3628 35.0801C68.1887 36.0261 68.0493 36.8708 67.9448 37.614C68.4905 37.569 69.0594 37.5465 69.6748 37.5465C70.3018 37.5239 70.8591 37.5127 71.3351 37.5127C71.3583 37.9181 71.3932 38.3122 71.428 38.7177C71.4744 39.1006 71.5093 39.4497 71.5557 39.765C71.6254 40.0803 71.6602 40.3619 71.6834 40.6209C71.7299 40.8574 71.7647 41.0151 71.7763 41.0939H71.2538C71.1029 41.0714 70.9404 41.0601 70.7662 41.0601C70.0928 41.0601 69.3729 41.0826 68.6182 41.1277C67.8752 41.1727 67.1321 41.229 66.3658 41.3191C65.6111 41.3979 64.8564 41.5218 64.1134 41.6682C63.3935 41.7921 62.7433 41.9498 62.1628 42.1412C62.2905 41.1952 62.4414 40.1366 62.6156 38.9767C62.7898 37.8167 62.9871 36.6117 63.2077 35.3729C63.4516 34.1342 63.6722 32.8729 63.8928 31.6115C64.1366 30.3502 64.3688 29.134 64.6126 27.974C65.1583 25.2149 65.7272 22.3995 66.3426 19.539L72.0434 18.807M33.7402 16.4758L30.1177 17.0389C29.0612 17.1966 27.993 17.3317 26.9481 17.4443C25.8799 17.5457 24.7885 17.647 23.7203 17.7259L22.9656 17.7822L22.5709 18.4016C22.3967 18.6719 22.211 18.9759 21.9904 19.3025L22.3619 17.8723H20.4578C19.8424 17.8723 19.2271 17.8498 18.6117 17.816C18.0544 17.7709 17.4623 17.7371 16.8237 17.7146C16.2199 17.6696 15.6626 17.6358 15.1866 17.5907L13.7004 17.4669L13.5727 18.9084C13.4914 19.8431 13.3637 20.9129 13.1896 22.0842V22.1067C13.0386 23.2666 12.8529 24.4716 12.6439 25.7104V25.7329C12.4465 26.9717 12.2375 28.2443 11.9937 29.5169C11.7499 30.8007 11.5293 32.0395 11.3087 33.2332C10.7514 35.9923 10.136 38.8641 9.49743 41.7921L9.04462 43.8305L11.1693 43.5264L16.4521 42.7719L17.4971 42.6255L17.6945 41.6232C17.8222 41.0151 17.9383 40.4182 18.0544 39.8326C18.1357 40.3506 18.2053 40.8574 18.275 41.3642L18.4608 42.6593L19.8076 42.6142C20.4229 42.5917 21.0151 42.5804 21.584 42.5804H21.642C22.211 42.5579 22.8031 42.5466 23.4068 42.5466C23.8829 42.5466 24.3821 42.5466 24.8814 42.5804H24.9162H24.951C25.4503 42.5804 25.9379 42.5804 26.414 42.6142L28.5387 42.7043L27.9001 40.7335C27.2267 38.6726 26.5649 36.6455 25.9147 34.6635C25.3342 32.9179 24.8233 31.0822 24.3821 29.2015C24.5679 28.9087 24.7769 28.6047 24.9859 28.2781C25.3458 27.76 25.7289 27.2195 26.1353 26.6677C26.5533 26.0933 26.9713 25.5077 27.3776 24.9221C27.8072 24.3365 28.2252 23.7847 28.6316 23.2441C29.5836 21.9603 30.5821 20.6539 31.5923 19.3363L33.7867 16.4871L33.7402 16.4758ZM91.6535 16.8925L89.7262 17.2304C88.3213 17.4781 86.8468 17.6696 85.349 17.816C83.8513 17.9624 82.3419 18.0863 80.8906 18.1876L79.834 18.2664L79.5554 19.2575C79.2999 20.1922 78.9981 21.2283 78.6497 22.3432C78.3014 23.4693 77.9299 24.6743 77.5467 25.9019C77.1752 27.1294 76.7921 28.3682 76.4089 29.5957V29.6182C76.0374 30.857 75.6775 32.0507 75.3407 33.1769C74.6209 35.4856 73.8894 37.8393 73.1464 40.2155C73.1231 39.9902 73.0767 39.7537 73.0303 39.506C72.9954 39.2132 72.949 38.8866 72.9141 38.5375C72.8793 38.1771 72.8445 37.7942 72.8213 37.4226L72.7516 36.0486H71.3351C70.8591 36.0486 70.3134 36.0486 69.698 36.0824C69.7445 35.8347 69.7909 35.5757 69.8374 35.3166C70.0115 34.3819 70.1973 33.4134 70.4179 32.4224C70.6385 31.4201 70.8591 30.384 71.1029 29.3367C71.3351 28.2668 71.5789 27.2307 71.8111 26.2622C72.3568 23.9536 72.9258 21.5549 73.5063 19.1223L73.9939 17.0952L71.8576 17.3655L66.1568 18.0975L65.1003 18.2327L64.8913 19.2349C64.2875 22.0954 63.707 24.9446 63.1613 27.6925C62.9291 28.8412 62.6853 30.0687 62.4414 31.3413V31.3638C62.2325 32.6138 62.0002 33.8751 61.7564 35.1027V35.1252C61.5358 36.3752 61.3384 37.6028 61.1643 38.7627C60.9901 39.9227 60.8392 40.9925 60.7115 41.9385L60.398 44.2359L62.662 43.5039C63.1845 43.335 63.765 43.1998 64.4152 43.0759H64.4268H64.4385C65.1351 42.9408 65.8433 42.8282 66.5516 42.7494C67.283 42.6705 68.0145 42.603 68.7227 42.5692C69.4542 42.5241 70.1392 42.5129 70.7894 42.5129C70.8939 42.5129 70.9868 42.5129 71.0681 42.5354H71.1726L71.2771 42.5466H72.4381L72.113 43.6052L74.3887 43.3237C75.0621 43.2449 75.7471 43.1548 76.4321 43.0759C76.9778 43.0196 77.5816 42.9521 78.2202 42.8958H78.2434H78.2666C78.9168 42.8057 79.4857 42.7381 79.9617 42.6705L80.937 42.5466L81.2041 41.6344L82.2026 38.1433H82.249C82.2026 38.6951 82.1561 39.2582 82.0981 39.8213C82.0168 40.497 81.9239 41.1727 81.8426 41.8709L81.5988 43.7854L83.561 43.4701L84.0835 43.3913L85.3258 43.1886C85.9528 43.0872 86.5333 42.9971 87.0674 42.907C87.7292 42.8394 88.4142 42.7494 89.076 42.648L90.2719 42.4566L90.3183 41.2853C90.446 38.0194 90.5621 34.9337 90.6783 32.0282C90.7479 30.7894 90.806 29.5281 90.8756 28.2443C90.9453 26.9605 91.0034 25.7329 91.073 24.5505C91.1427 23.3905 91.2007 22.2981 91.2704 21.3184C91.3517 20.3273 91.4329 19.4827 91.491 18.8183L91.6768 16.9263L91.6535 16.8925ZM41.4148 16.9826C40.0447 16.9826 38.7211 17.2979 37.4672 17.9399C36.2945 18.5367 35.1799 19.3476 34.1582 20.3611C33.1829 21.3071 32.2773 22.422 31.4529 23.6608C30.6402 24.8883 29.9552 26.2059 29.3979 27.5686C28.8522 28.92 28.411 30.2939 28.0975 31.6679C27.7724 33.0756 27.6099 34.4382 27.6099 35.7108C27.6099 36.9834 27.7492 38.0983 28.0278 39.0443V39.0668L28.0394 39.0893C28.3529 40.0578 28.7941 40.8799 29.3398 41.5444V41.5669C29.9087 42.2313 30.5938 42.7494 31.3717 43.1097H31.3949L31.4181 43.1322C32.196 43.4701 33.0552 43.639 33.9724 43.639C35.0058 43.639 36.0855 43.4251 37.1885 42.9971H37.2002H37.2118C38.2683 42.5692 39.3133 41.961 40.3234 41.184V41.1727C41.3103 40.3957 42.2623 39.4609 43.1564 38.4023C44.0736 37.31 44.8747 36.0712 45.5597 34.7085C46.2331 33.3233 46.7788 31.8143 47.162 30.2038C47.58 28.5709 47.789 26.8141 47.789 24.9784C47.789 24.1113 47.7077 23.2328 47.5335 22.3657C47.3478 21.4422 47.0343 20.5863 46.5931 19.8431C46.1287 18.9984 45.4436 18.3115 44.5844 17.8047C43.7137 17.2641 42.6339 16.9826 41.3799 16.9826H41.4148ZM36.0507 31.4314C36.2945 30.7557 36.5732 30.0912 36.8867 29.4606C37.1885 28.8412 37.5369 28.3006 37.9084 27.8389C38.2683 27.4109 38.6747 27.0618 39.1043 26.8141C39.4294 26.6226 39.7661 26.5325 40.1492 26.51V26.5325C40.2073 26.6451 40.2305 26.7578 40.2421 26.9042V26.9605V27.0055C40.2769 27.2307 40.2886 27.4447 40.2886 27.6249C40.2886 28.3907 40.1608 29.2578 39.9054 30.2038V30.2264C39.6732 31.1836 39.3365 32.0958 38.8837 32.9292C38.4657 33.7062 37.9548 34.3819 37.3279 34.9112C36.8402 35.3279 36.3294 35.5306 35.714 35.5306C35.656 35.4856 35.6211 35.4405 35.5747 35.3955C35.5282 35.3392 35.4818 35.2603 35.4586 35.159C35.4237 35.0576 35.4005 34.9675 35.4005 34.8887C35.4005 34.4607 35.447 33.9202 35.5515 33.3008C35.6443 32.6927 35.8069 32.062 36.0159 31.4201L36.0507 31.4314ZM64.334 17.1515L62.1164 17.3317L51.8178 18.1876L50.68 18.2777L50.471 19.3588L46.1983 41.8259L45.8152 43.8305L47.8935 43.5151L58.4126 41.9385L59.562 41.7696L59.6665 40.6434L59.9916 37.0397L60.1542 35.204L58.2733 35.4968L55.5912 35.9022L56.1021 33.2332C56.3343 33.2332 56.5549 33.222 56.7639 33.2107C57.2515 33.1882 57.716 33.1769 58.1688 33.1769H58.2384C58.7725 33.1544 59.1441 33.1319 59.3995 33.1093L60.5141 32.9967L60.7115 31.9269C60.8276 31.3187 60.9205 30.7106 60.9785 30.125C61.0598 29.5619 61.1527 28.9876 61.234 28.402L61.501 26.5888L59.6201 26.7578C59.4924 26.769 59.2137 26.7803 58.6448 26.7803C58.1223 26.7803 57.6115 26.7803 57.1122 26.8141L57.6463 24.145H59.0976C59.5272 24.1225 59.9336 24.1113 60.2935 24.1113H60.3748C60.816 24.0887 61.1411 24.0662 61.3849 24.0437L62.4995 23.9311L62.7085 22.8725C62.7665 22.5459 62.8478 22.1855 62.9291 21.7801C63.0336 21.3634 63.1381 20.958 63.2426 20.5751V20.5413L63.2542 20.5075C63.3471 20.0683 63.4748 19.6404 63.6141 19.2124L64.2875 17.1515H64.334Z" fill="black"/>
</g>
<defs>
<clipPath id="clip0_1_105">
<rect width="101" height="59" fill="white"/>
</clipPath>
</defs>
</svg>
