<svg width="18" height="18" viewBox="0 0 18 18" fill="none" xmlns="http://www.w3.org/2000/svg">
<path d="M12.897 0.386475V0.387981L12.9221 0.388735C12.9258 0.387228 12.9302 0.387228 12.9339 0.387228C14.0418 0.387228 14.9399 1.30333 14.9407 2.43256L14.9399 2.43331L14.9407 13.0694C14.9399 14.1987 14.0418 15.1155 12.9339 15.1155H12.9221H2.51857H2.50602C1.39956 15.1155 0.50208 14.2009 0.5 13.073L0.501478 13.0685H0.5V2.43244C0.501477 1.30161 1.39963 0.387107 2.50602 0.387107H2.51857H2.54368L12.897 0.386475ZM15.7155 2.67076C16.7193 2.78226 17.5 3.65015 17.5 4.70336L17.4993 4.70411L17.5 15.3396C17.5 16.4697 16.6018 17.3865 15.494 17.3865H15.4822H5.1038L5.07868 17.3857H5.06613C4.15172 17.3857 3.38059 16.7619 3.13915 15.9091L4.45241 15.9061C4.59939 16.0718 4.8099 16.1781 5.04478 16.1841H15.5154L15.5162 16.1848C15.963 16.172 16.322 15.7991 16.322 15.3396V4.70637V4.70335C16.322 4.31612 16.0657 3.98916 15.7163 3.8897L15.7155 2.67076Z" fill="black"/>
</svg>
