<svg width="52" height="36" viewBox="0 0 52 36" fill="none" xmlns="http://www.w3.org/2000/svg">
<path d="M0.5 7.99999C0.5 3.85786 3.85786 0.5 8 0.5H44C48.1421 0.5 51.5 3.85786 51.5 8V27.8758C51.5 32.0179 48.1421 35.3758 44 35.3758H8C3.85786 35.3758 0.5 32.0179 0.5 27.8758V7.99999Z" fill="#00B75A"/>
<path d="M0.5 7.99999C0.5 3.85786 3.85786 0.5 8 0.5H44C48.1421 0.5 51.5 3.85786 51.5 8V27.8758C51.5 32.0179 48.1421 35.3758 44 35.3758H8C3.85786 35.3758 0.5 32.0179 0.5 27.8758V7.99999Z" stroke="black"/>
<path d="M25.9238 8.02339C29.1259 7.79352 31.8062 9.27619 34.0222 11.6692C35.1785 12.9174 35.9508 14.4552 35.9922 16.2022C36.0267 17.7539 35.9439 19.3147 35.8014 20.8617C35.6221 22.8088 34.2107 24.0064 32.8682 25.1742C31.7465 26.1488 30.5189 26.9488 29.0455 27.4292C27.1697 28.0407 25.3284 28.0269 23.5561 27.3717C22.1746 26.8614 20.8 26.1488 19.6552 25.2339C18.1587 24.034 17.1358 22.4341 16.4967 20.5399C15.5037 17.5999 16.0968 14.8598 17.4162 12.2806C17.984 11.168 19.0805 10.2026 20.154 9.50377C21.8022 8.43026 23.7101 7.92225 25.9215 8.02339H25.9238ZM34.8497 17.6688C34.8566 15.7264 34.1739 14.0414 32.9671 12.6254C31.7258 11.168 30.2086 9.93822 28.28 9.57503C27.0318 9.34056 25.6755 9.30838 24.4296 9.52905C23.0366 9.77731 21.5103 10.1359 20.4 10.9405C17.0002 13.407 16.3519 18.2504 18.4116 21.7537C19.6575 23.8708 21.5355 25.2822 23.7837 26.112C24.7974 26.4867 25.9905 26.558 27.0824 26.4867C28.5466 26.3925 29.9512 25.8707 31.0936 24.8983C32.2499 23.9145 33.6912 23.1168 34.1601 21.5698C34.5394 20.3147 34.6314 18.9722 34.852 17.6665L34.8497 17.6688Z" fill="black"/>
<path d="M29.7356 14.9878C29.5119 17.086 29.3841 19.1735 29.8101 21.261C29.9166 21.7935 29.906 22.4113 29.2989 22.6349C28.6812 22.8586 28.1806 22.4858 27.7865 22.0172C27.5096 21.6977 27.4137 21.2717 27.4563 20.8882C27.6907 18.7475 27.5202 16.596 27.5735 14.4553C27.6054 13.2943 27.7972 13.0494 28.6812 13.06C29.4161 13.0707 29.7569 13.5606 29.7462 14.5937C29.7462 14.7215 29.7356 14.8493 29.7356 14.9878Z" fill="black"/>
<path d="M24.6339 14.8067C24.6659 15.2646 24.4742 16.0102 24.325 16.7451C24.0162 18.3001 24.0162 19.8444 24.2611 21.4101C24.3357 21.8574 24.4635 22.2941 23.9949 22.6136C23.5901 22.8905 23.2174 22.6881 22.8553 22.5177C22.3866 22.2941 22.376 21.9 22.376 21.3994C22.3973 19.3438 22.6529 17.3096 22.7168 15.254C22.7274 14.8493 22.7061 14.4445 22.6742 14.0505C22.589 13.3049 22.834 12.9109 23.441 12.8363C24.0588 12.7617 24.5487 13.1558 24.6233 13.8268C24.6552 14.0505 24.6339 14.2741 24.6339 14.8067Z" fill="black"/>
</svg>
