<svg width="52" height="36" viewBox="0 0 52 36" fill="none" xmlns="http://www.w3.org/2000/svg">
<path d="M0.5 7.99999C0.5 3.85786 3.85786 0.5 8 0.5H44C48.1421 0.5 51.5 3.85786 51.5 8V27.8758C51.5 32.0179 48.1421 35.3758 44 35.3758H8C3.85786 35.3758 0.5 32.0179 0.5 27.8758V7.99999Z" fill="#00B75A"/>
<path d="M0.5 7.99999C0.5 3.85786 3.85786 0.5 8 0.5H44C48.1421 0.5 51.5 3.85786 51.5 8V27.8758C51.5 32.0179 48.1421 35.3758 44 35.3758H8C3.85786 35.3758 0.5 32.0179 0.5 27.8758V7.99999Z" stroke="black"/>
<path d="M25.9238 8.02339C29.1259 7.79352 31.8062 9.27619 34.0222 11.6692C35.1785 12.9174 35.9508 14.4552 35.9922 16.2022C36.0267 17.7539 35.9439 19.3147 35.8014 20.8617C35.6221 22.8088 34.2107 24.0064 32.8682 25.1742C31.7465 26.1488 30.5189 26.9488 29.0455 27.4292C27.1697 28.0407 25.3284 28.0269 23.5561 27.3717C22.1746 26.8614 20.8 26.1488 19.6552 25.2339C18.1587 24.034 17.1358 22.4341 16.4967 20.5399C15.5037 17.5999 16.0968 14.8598 17.4162 12.2806C17.984 11.168 19.0805 10.2026 20.154 9.50377C21.8022 8.43026 23.7101 7.92225 25.9215 8.02339H25.9238ZM34.8497 17.6688C34.8566 15.7264 34.1739 14.0414 32.9671 12.6254C31.7258 11.168 30.2086 9.93822 28.28 9.57503C27.0318 9.34056 25.6755 9.30838 24.4296 9.52905C23.0366 9.77731 21.5103 10.1359 20.4 10.9405C17.0002 13.407 16.3519 18.2504 18.4116 21.7537C19.6575 23.8708 21.5355 25.2822 23.7837 26.112C24.7974 26.4867 25.9905 26.558 27.0824 26.4867C28.5466 26.3925 29.9512 25.8707 31.0936 24.8983C32.2499 23.9145 33.6912 23.1168 34.1601 21.5698C34.5394 20.3147 34.6314 18.9722 34.852 17.6665L34.8497 17.6688Z" fill="black"/>
<path d="M21.4827 18.6206C21.4827 16.9678 21.4919 15.3173 21.4781 13.6645C21.4712 13.0025 21.8413 12.6853 22.4091 12.8232C25.2756 13.5128 28.034 14.4806 30.4155 16.292C31.9625 17.4689 32.0085 17.7907 30.2546 18.8205C27.8616 20.2251 25.3652 21.4618 22.8895 22.7215C22.2137 23.064 21.7355 22.8111 21.6781 21.9744C21.6045 20.8572 21.5034 19.7423 21.416 18.6252C21.4367 18.6252 21.4597 18.6206 21.4804 18.6183L21.4827 18.6206ZM29.6408 17.6068C27.4708 15.8713 25.2687 14.9633 22.8918 14.4047V21.3078C25.2411 20.0205 27.3628 18.8573 29.6408 17.6091V17.6068Z" fill="black"/>
</svg>
