<svg width="23" height="27" viewBox="0 0 23 27" fill="none" xmlns="http://www.w3.org/2000/svg">
<g clip-path="url(#clip0_83_2531)">
<path fill-rule="evenodd" clip-rule="evenodd" d="M13.7993 9.61794C14.6005 9.2061 15.6199 8.59986 16.6405 7.76925C16.8557 8.22996 16.8793 8.63199 16.7684 8.95662C16.6899 9.1854 16.5418 9.38439 16.3471 9.5427C16.1363 9.71379 15.873 9.83835 15.5819 9.90567C15.0297 10.0339 14.3848 9.95904 13.7993 9.61794ZM13.9382 13.8377L14.9988 14.4692C12.8333 15.7204 12.2446 18.0436 11.5454 20.3065C10.8462 18.0436 10.2574 15.7204 8.09206 14.4692L9.1526 13.8377C9.2552 13.7977 9.34288 13.7253 9.40311 13.6308C9.46333 13.5363 9.49299 13.4246 9.48784 13.3116C9.39067 11.1924 9.94574 10.2552 10.6944 9.66681C10.963 9.45603 11.2561 9.35019 11.5454 9.35019C11.8346 9.35019 12.1278 9.45603 12.3964 9.66681C13.1451 10.2552 13.7001 11.1924 13.603 13.3116C13.5978 13.4246 13.6275 13.5363 13.6877 13.6308C13.7479 13.7253 13.8356 13.7977 13.9382 13.8377ZM11.5454 0C12.7713 0.03393 14.0002 0.27927 15.0668 0.75654C15.8053 1.08747 16.4945 1.5246 17.1185 2.04732C17.4003 2.2833 17.6324 2.51127 17.888 2.77371C18.5774 2.79828 19.585 2.00871 20.0527 1.2699C19.2477 3.9906 15.5742 7.20351 13.0311 8.43291C13.03 8.43246 13.0293 8.43183 13.0285 8.43129C12.5721 8.07201 12.0588 7.89237 11.5454 7.89237C11.0319 7.89237 10.5187 8.07201 10.0623 8.43129C10.0615 8.43174 10.0608 8.43255 10.0598 8.43291C7.51648 7.20351 3.84309 3.9906 3.03809 1.2699C3.50576 2.00871 4.51331 2.79828 5.20273 2.77371C5.45844 2.51136 5.69048 2.2833 5.97221 2.04732C6.59624 1.5246 7.2854 1.08747 8.02397 0.75654C9.09062 0.27927 10.3196 0.03393 11.5454 0ZM9.29141 9.61794C8.49033 9.2061 7.47082 8.59986 6.45027 7.76925C6.23507 8.22996 6.2115 8.63199 6.32228 8.95662C6.40094 9.1854 6.54901 9.38439 6.7436 9.5427C6.95452 9.71379 7.21782 9.83835 7.50889 9.90567C8.06116 10.0339 8.70588 9.95904 9.29141 9.61794Z" fill="black"/>
<path fill-rule="evenodd" clip-rule="evenodd" d="M17.7584 6.75129C18.3203 6.16674 18.8154 5.51973 19.2135 4.94238L19.4156 5.33469C20.0666 6.67722 20.4048 8.01435 20.4048 9.51915L20.4034 11.907L20.4156 13.1449C20.4627 16.1838 21.1006 19.2585 22.5454 22.0723L19.5224 19.5593L17.3834 23.1376L15.1363 20.9568L11.5454 26.9642L7.95452 20.9569L5.70747 23.1377L3.56849 19.5594L0.54541 22.0724C1.99025 19.2586 2.62808 16.1839 2.67531 13.145L2.68753 11.9071L2.68613 9.51924C2.68613 8.01435 3.02425 6.67722 3.67535 5.33478L3.87745 4.94247C4.27555 5.51982 4.77055 6.16674 5.33251 6.75138L5.15703 7.12713C4.81612 7.85694 4.70324 8.67297 4.96881 9.44904C5.14001 9.9489 5.45246 10.3776 5.85527 10.7048C6.24638 11.0226 6.70925 11.2368 7.19386 11.3493C7.50955 11.4226 7.83116 11.4527 8.15069 11.4425C8.07613 11.8781 8.04357 12.33 8.04147 12.7905L5.18985 14.4884L7.39038 15.76C7.56626 15.8617 7.73369 15.9781 7.89097 16.1082C9.70518 17.7875 10.7959 22.7552 11.5455 25.1817C12.2952 22.7552 13.3858 17.7875 15.2001 16.1082C15.3574 15.9781 15.5248 15.8617 15.7007 15.76L17.9012 14.4884L15.0495 12.7905C15.0474 12.33 15.0149 11.8781 14.9403 11.4425C15.2598 11.4527 15.5815 11.4226 15.8971 11.3493C16.3817 11.2368 16.8447 11.0226 17.2357 10.7048C17.6384 10.3776 17.951 9.9489 18.1221 9.44904C18.3878 8.67297 18.2748 7.85703 17.934 7.12713L17.7585 6.75138L17.7584 6.75129Z" fill="black"/>
</g>
<defs>
<clipPath id="clip0_83_2531">
<rect width="22" height="27" fill="black" transform="translate(0.54541)"/>
</clipPath>
</defs>
</svg>
